<?xml version="1.0" encoding="UTF-8"?>
<svg xmlns="http://www.w3.org/2000/svg" xmlns:xlink="http://www.w3.org/1999/xlink" width="778.1pt" height="206.4pt" viewBox="0 0 778.1 206.4" version="1.1">
<defs>
<clipPath id="clip1">
  <path d="M 223 53 L 778.101563 53 L 778.101563 206 L 223 206 Z M 223 53 "/>
</clipPath>
<clipPath id="clip2">
  <path d="M 222 51 L 778.101563 51 L 778.101563 206.398438 L 222 206.398438 Z M 222 51 "/>
</clipPath>
<clipPath id="clip3">
  <path d="M 56 102 L 716 102 L 716 206.398438 L 56 206.398438 Z M 56 102 "/>
</clipPath>
<clipPath id="clip4">
  <path d="M 55 101 L 717 101 L 717 206.398438 L 55 206.398438 Z M 55 101 "/>
</clipPath>
</defs>
<g id="surface1">
<g clip-path="url(#clip1)" clip-rule="nonzero">
<path style=" stroke:none;fill-rule:evenodd;fill:rgb(10.594177%,9.812927%,9.423828%);fill-opacity:1;" d="M 709.75 198.589844 L 713.859375 205.167969 C 718.949219 205.40625 737.046875 204.550781 751.933594 204.296875 C 767.085938 204.039063 778.078125 195.515625 767.34375 180.25 L 778.074219 131.855469 C 706.457031 81.75 627.824219 59.273438 541.984375 71.757813 C 541.285156 72.910156 508.441406 76.980469 505.496094 76.441406 L 482.960938 75.269531 L 391.03125 65.902344 L 328.789063 58.878906 L 242.222656 54.585938 L 223.976563 53.023438 L 242.9375 65.125 L 333.078125 73.707031 L 420.71875 81.902344 C 466.964844 85.769531 505.417969 91.839844 550.570313 80.734375 C 627.195313 66.769531 705.820313 94.664063 771.992188 134.980469 L 760.527344 180.960938 C 768.914063 187.410156 767.261719 195.445313 757.816406 197.296875 Z M 709.75 198.589844 "/>
</g>
<g clip-path="url(#clip2)" clip-rule="nonzero">
<path style="fill:none;stroke-width:2.16;stroke-linecap:butt;stroke-linejoin:miter;stroke:rgb(100%,100%,100%);stroke-opacity:1;stroke-miterlimit:4;" d="M 7097.5 78.101563 L 7138.59375 12.320313 C 7189.492188 9.9375 7370.46875 18.492188 7519.335938 21.03125 C 7670.859375 23.609375 7780.78125 108.84375 7673.4375 261.5 L 7780.742188 745.445313 C 7064.570313 1246.5 6278.242188 1471.265625 5419.84375 1346.421875 C 5412.851563 1334.898438 5084.414063 1294.195313 5054.960938 1299.585938 L 4829.609375 1311.304688 L 3910.3125 1404.976563 L 3287.890625 1475.210938 L 2422.226563 1518.140625 L 2239.765625 1533.765625 L 2429.375 1412.75 L 3330.78125 1326.929688 L 4207.1875 1244.976563 C 4669.648438 1206.304688 5054.179688 1145.601563 5505.703125 1256.65625 C 6271.953125 1396.304688 7058.203125 1117.359375 7719.921875 714.195313 L 7605.273438 254.390625 C 7689.140625 189.898438 7672.617188 109.546875 7578.164063 91.03125 Z M 7097.5 78.101563 " transform="matrix(0.1,0,0,-0.1,0,206.4)"/>
</g>
<path style=" stroke:none;fill-rule:evenodd;fill:rgb(23.143005%,23.143005%,23.143005%);fill-opacity:1;" d="M 97.640625 104.347656 C 52.445313 126.972656 45.246094 157.1875 54.996094 197.832031 L 7.925781 173.695313 C 0.046875 125.542969 4.972656 96.636719 16.777344 60.457031 L 70.929688 50.351563 C 97.8125 45.113281 120.773438 39.453125 152.351563 33.683594 L 201.835938 22.714844 L 261.777344 12.179688 C 370.867188 -0.0273438 472.359375 7.210938 574.765625 55.191406 C 463.347656 18.28125 362.238281 16.03125 248.5 27.980469 L 153.960938 45.972656 C 129.121094 51.957031 106.496094 56.660156 71.351563 63.992188 L 24.824219 71.429688 C 17.367188 99.238281 10.800781 135.972656 18.789063 165.792969 L 40.109375 176.328125 C 33.792969 140.382813 56.265625 112.441406 97.640625 104.347656 Z M 97.640625 104.347656 "/>
<path style=" stroke:none;fill-rule:evenodd;fill:rgb(23.143005%,23.143005%,23.143005%);fill-opacity:1;" d="M 97.644531 104.359375 C 75.050781 115.671875 61.953125 128.878906 55.726563 144.335938 C 49.496094 159.796875 50.132813 177.511719 55.007813 197.828125 L 55.015625 197.859375 L 54.988281 197.84375 L 7.921875 173.707031 L 7.914063 173.703125 L 7.914063 173.695313 C 3.972656 149.617188 3.234375 130.355469 4.957031 112.585938 C 6.679688 94.816406 10.863281 78.542969 16.765625 60.453125 L 16.765625 60.445313 L 16.773438 60.445313 L 70.925781 50.339844 C 82.21875 48.140625 92.816406 45.863281 103.652344 43.539063 C 118.617188 40.328125 134.03125 37.015625 152.347656 33.671875 L 201.832031 22.699219 L 261.773438 12.167969 L 261.777344 12.167969 C 316.324219 6.0625 368.96875 4.820313 420.78125 11.101563 C 472.589844 17.386719 523.566406 31.191406 574.769531 55.179688 L 574.972656 55.273438 L 574.761719 55.203125 C 519.054688 36.75 465.921875 26.960938 412.503906 23.277344 C 359.082031 19.59375 305.371094 22.019531 248.503906 27.992188 L 153.964844 45.988281 C 129.675781 51.839844 107.507813 56.464844 73.683594 63.519531 L 71.351563 64.003906 L 24.832031 71.441406 C 21.105469 85.34375 17.601563 101.476563 16.027344 117.859375 C 14.453125 134.242188 14.808594 150.878906 18.800781 165.785156 L 40.09375 176.304688 C 36.945313 158.355469 40.972656 142.40625 50.949219 129.921875 C 60.949219 117.410156 76.925781 108.386719 97.636719 104.335938 L 97.730469 104.316406 Z M 55.699219 144.328125 C 61.925781 128.882813 75 115.683594 97.546875 104.378906 C 76.886719 108.4375 60.953125 117.449219 50.972656 129.9375 C 40.996094 142.421875 36.96875 158.375 40.125 176.324219 L 40.128906 176.351563 L 40.105469 176.339844 L 18.78125 165.804688 L 18.777344 165.800781 L 18.777344 165.796875 C 14.78125 150.882813 14.425781 134.242188 16 117.855469 C 17.578125 101.46875 21.082031 85.332031 24.808594 71.425781 L 24.8125 71.417969 L 24.820313 71.417969 L 71.347656 63.976563 L 73.675781 63.492188 C 107.5 56.4375 129.671875 51.8125 153.957031 45.960938 L 248.5 27.964844 C 305.371094 21.992188 359.082031 19.566406 412.503906 23.25 C 465.859375 26.929688 518.925781 36.699219 574.554688 55.109375 C 523.421875 31.179688 472.515625 17.402344 420.777344 11.128906 C 368.96875 4.847656 316.324219 6.089844 261.777344 12.191406 L 201.835938 22.726563 L 152.355469 33.699219 C 134.039063 37.042969 118.621094 40.351563 103.65625 43.5625 C 92.820313 45.890625 82.222656 48.164063 70.929688 50.367188 L 16.789063 60.46875 C 10.886719 78.554688 6.707031 94.824219 4.984375 112.589844 C 3.261719 130.351563 4 149.613281 7.9375 173.683594 L 54.976563 197.808594 C 50.105469 177.496094 49.472656 159.785156 55.699219 144.328125 Z M 55.699219 144.328125 "/>
<g clip-path="url(#clip3)" clip-rule="nonzero">
<path style=" stroke:none;fill-rule:evenodd;fill:rgb(10.594177%,9.812927%,9.423828%);fill-opacity:1;" d="M 182.171875 115.085938 C 182.605469 116.101563 182.925781 117.089844 183.140625 118.046875 C 183.355469 119.003906 183.464844 119.933594 183.464844 120.835938 C 183.464844 125.796875 181.0625 130.445313 176.253906 134.785156 C 171.445313 139.125 166.171875 143.039063 160.429688 146.535156 C 157.417969 148.335938 154.476563 150.027344 151.605469 151.605469 C 148.734375 153.183594 146.222656 154.59375 144.070313 155.832031 L 130.9375 142.476563 C 131.371094 142.25 133.128906 141.292969 136.214844 139.601563 C 139.296875 137.910156 142.636719 135.9375 146.222656 133.683594 C 146.941406 133.234375 147.621094 132.8125 148.269531 132.417969 C 148.914063 132.023438 149.597656 131.601563 150.3125 131.148438 C 153.472656 129.121094 156.160156 127.203125 158.386719 125.402344 C 160.609375 123.597656 161.722656 122.1875 161.722656 121.175781 C 161.722656 120.949219 161.6875 120.75 161.617188 120.582031 C 161.542969 120.414063 161.363281 120.273438 161.078125 120.160156 C 159.929688 119.597656 158.671875 119.203125 157.308594 118.976563 C 155.945313 118.75 154.476563 118.636719 152.898438 118.636719 C 151.75 118.636719 150.601563 118.695313 149.453125 118.808594 C 148.304688 118.917969 147.085938 119.089844 145.792969 119.3125 C 143.640625 119.652344 141.488281 120.101563 139.335938 120.667969 C 137.183594 121.230469 135.246094 121.792969 133.523438 122.355469 C 132.804688 122.582031 132.085938 122.835938 131.371094 123.117188 C 130.652344 123.398438 130.007813 123.652344 129.433594 123.878906 C 128.570313 124.21875 127.207031 124.867188 125.34375 125.824219 C 123.476563 126.78125 121.539063 127.824219 119.53125 128.953125 C 118.09375 129.851563 116.695313 130.78125 115.332031 131.742188 C 113.96875 132.699219 112.785156 133.683594 111.78125 134.699219 C 110.917969 135.601563 110.203125 136.503906 109.628906 137.40625 C 109.054688 138.304688 108.765625 139.152344 108.765625 139.941406 C 108.765625 140.277344 108.800781 140.589844 108.875 140.871094 C 108.945313 141.152344 109.054688 141.40625 109.195313 141.632813 L 108.980469 141.292969 L 124.910156 163.273438 C 122.472656 164.738281 119.996094 166.175781 117.484375 167.582031 C 114.972656 168.992188 112.496094 170.429688 110.058594 171.894531 C 105.179688 174.710938 100.300781 177.558594 95.417969 180.433594 C 90.539063 183.308594 85.660156 186.210938 80.78125 189.140625 L 170.546875 189.140625 L 163.660156 205.878906 C 149.882813 205.878906 136.070313 205.878906 122.21875 205.878906 C 108.371094 205.878906 94.488281 205.878906 80.566406 205.878906 C 72.960938 205.878906 67.074219 204.414063 62.914063 201.480469 C 58.75 198.550781 56.671875 195.113281 56.671875 191.167969 C 56.671875 190.378906 56.777344 189.589844 56.992188 188.800781 C 57.210938 188.011719 57.460938 187.222656 57.746094 186.433594 C 58.609375 184.519531 59.898438 182.628906 61.621094 180.769531 C 63.34375 178.910156 65.570313 177.191406 68.296875 175.613281 C 70.734375 174.261719 73.140625 172.882813 75.507813 171.472656 C 77.875 170.0625 80.277344 168.625 82.71875 167.160156 C 85.15625 165.695313 87.5625 164.257813 89.929688 162.847656 C 92.296875 161.441406 94.703125 160.058594 97.140625 158.707031 C 96.996094 158.371094 96.78125 158.058594 96.496094 157.777344 C 96.207031 157.496094 95.992188 157.242188 95.851563 157.015625 C 95.707031 156.792969 95.527344 156.566406 95.3125 156.339844 C 95.097656 156.113281 94.917969 155.890625 94.773438 155.664063 C 92.90625 153.296875 91.222656 150.875 89.714844 148.394531 C 88.207031 145.914063 87.382813 143.210938 87.238281 140.277344 C 87.238281 132.050781 92.296875 124.582031 102.414063 117.878906 C 112.535156 111.171875 123.691406 106.578125 135.890625 104.097656 C 138.761719 103.421875 141.628906 102.941406 144.5 102.660156 C 147.371094 102.378906 150.171875 102.238281 152.898438 102.238281 C 156.628906 102.238281 160.179688 102.546875 163.550781 103.167969 C 166.925781 103.789063 169.976563 104.773438 172.703125 106.128906 C 174.996094 107.253906 176.933594 108.550781 178.515625 110.015625 C 180.09375 111.480469 181.3125 113.171875 182.171875 115.085938 Z M 253.429688 151.269531 L 217.046875 184.574219 C 217.191406 184.914063 217.335938 185.222656 217.476563 185.503906 C 217.621094 185.785156 217.765625 186.097656 217.910156 186.433594 C 218.050781 186.773438 218.195313 187.082031 218.339844 187.363281 C 218.484375 187.644531 218.625 187.957031 218.769531 188.292969 C 219.058594 188.746094 219.378906 189.027344 219.738281 189.140625 C 220.097656 189.253906 220.5625 189.308594 221.136719 189.308594 L 244.816406 189.308594 L 237.929688 206.046875 C 236.925781 206.046875 235.667969 206.046875 234.160156 206.046875 C 232.65625 206.046875 231.113281 206.046875 229.535156 206.046875 C 227.953125 206.046875 226.410156 206.046875 224.90625 206.046875 C 223.398438 206.046875 222.140625 206.046875 221.136719 206.046875 C 217.121094 206.046875 213.425781 205.398438 210.050781 204.101563 C 206.679688 202.804688 203.84375 200.917969 201.546875 198.4375 L 193.367188 206.046875 L 165.382813 206.046875 L 192.722656 181.191406 L 178.515625 151.269531 L 201.117188 151.269531 C 202.410156 153.859375 203.664063 156.425781 204.882813 158.960938 C 206.105469 161.496094 207.289063 164.0625 208.4375 166.652344 L 225.226563 151.269531 Z M 321.023438 189.308594 L 313.917969 206.046875 L 266.992188 206.046875 C 263.117188 206.046875 259.492188 205.398438 256.117188 204.101563 C 252.746094 202.804688 250.128906 200.804688 248.261719 198.101563 C 247.402344 196.859375 246.753906 195.507813 246.324219 194.042969 C 245.894531 192.578125 245.679688 191.113281 245.679688 189.648438 C 245.679688 189.308594 245.714844 188.941406 245.785156 188.546875 C 245.859375 188.152344 245.894531 187.730469 245.894531 187.28125 C 246.179688 185.027344 246.789063 182.742188 247.722656 180.433594 C 248.65625 178.121094 249.625 176.007813 250.628906 174.09375 C 253.644531 168.683594 257.339844 164.203125 261.714844 160.652344 C 266.09375 157.101563 270.648438 154.425781 275.386719 152.621094 C 277.394531 151.71875 279.367188 151.015625 281.304688 150.507813 C 283.242188 150 285.144531 149.632813 287.011719 149.410156 C 287.871094 149.296875 288.734375 149.210938 289.59375 149.15625 C 290.453125 149.097656 291.386719 149.070313 292.390625 149.070313 C 298.277344 149.070313 303.515625 150.367188 308.105469 152.960938 C 312.699219 155.550781 314.996094 159.160156 314.996094 163.78125 C 314.996094 164.679688 314.886719 165.609375 314.671875 166.570313 C 314.457031 167.527344 314.0625 168.570313 313.488281 169.695313 C 312.339844 172.515625 309.972656 175.585938 306.386719 178.910156 C 302.796875 182.234375 297.773438 185.703125 291.316406 189.308594 Z M 292.824219 165.46875 C 287.65625 165.695313 283.136719 167.273438 279.261719 170.203125 C 275.386719 173.132813 272.515625 176.347656 270.648438 179.839844 C 270.648438 179.953125 270.613281 180.039063 270.542969 180.09375 C 270.472656 180.152344 270.433594 180.234375 270.433594 180.347656 C 277.035156 177.304688 282.09375 174.515625 285.609375 171.980469 C 289.128906 169.441406 291.53125 167.273438 292.824219 165.46875 Z M 396.367188 189.308594 L 389.265625 206.046875 L 341.472656 206.046875 C 337.457031 206.046875 333.722656 205.34375 330.28125 203.933594 C 326.835938 202.523438 324.179688 200.410156 322.316406 197.59375 C 321.453125 196.242188 320.84375 194.859375 320.484375 193.449219 C 320.125 192.042969 319.945313 190.605469 319.945313 189.140625 C 319.945313 186.320313 320.484375 183.558594 321.5625 180.855469 C 322.636719 178.148438 323.894531 175.613281 325.328125 173.246094 C 325.328125 173.132813 325.363281 173.050781 325.4375 172.992188 C 325.507813 172.9375 325.542969 172.851563 325.542969 172.738281 C 329.417969 166.878906 335.265625 161.523438 343.089844 156.679688 C 350.910156 151.832031 359.199219 149.410156 367.953125 149.410156 C 368.238281 149.410156 368.492188 149.410156 368.707031 149.410156 C 368.921875 149.410156 369.171875 149.410156 369.460938 149.410156 C 369.601563 149.519531 369.816406 149.578125 370.105469 149.578125 C 370.390625 149.578125 370.679688 149.578125 370.964844 149.578125 C 376.417969 150.027344 380.867188 151.605469 384.3125 154.3125 C 387.757813 157.015625 389.480469 160.453125 389.480469 164.625 C 389.480469 164.738281 389.480469 164.90625 389.480469 165.132813 C 389.480469 165.355469 389.480469 165.527344 389.480469 165.640625 C 389.480469 165.863281 389.445313 166.0625 389.371094 166.230469 C 389.300781 166.398438 389.265625 166.597656 389.265625 166.824219 L 388.1875 174.261719 L 366.660156 174.261719 L 367.738281 166.144531 C 363.574219 166.371094 359.628906 167.667969 355.898438 170.035156 C 352.164063 172.402344 349.152344 174.996094 346.855469 177.8125 C 346.425781 178.375 346.03125 178.882813 345.671875 179.332031 C 345.3125 179.785156 344.988281 180.234375 344.703125 180.6875 C 344.703125 180.800781 344.523438 181.164063 344.164063 181.785156 C 343.804688 182.40625 343.410156 183.164063 342.980469 184.066406 C 342.835938 184.179688 342.730469 184.320313 342.65625 184.492188 C 342.585938 184.660156 342.480469 184.800781 342.335938 184.914063 C 342.046875 185.703125 341.761719 186.460938 341.472656 187.195313 C 341.1875 187.929688 341.042969 188.464844 341.042969 188.800781 C 341.042969 188.914063 341.078125 189.027344 341.152344 189.140625 C 341.222656 189.253906 341.332031 189.308594 341.472656 189.308594 Z M 467.40625 189.308594 L 460.304688 206.046875 C 459.300781 206.046875 458.257813 206.046875 457.183594 206.046875 C 456.105469 206.046875 454.992188 206.046875 453.84375 206.046875 C 450.6875 206.046875 447.636719 205.59375 444.695313 204.695313 C 441.753906 203.792969 439.136719 202.550781 436.839844 200.972656 C 433.96875 202.550781 430.847656 203.792969 427.476563 204.695313 C 424.101563 205.59375 420.695313 206.046875 417.25 206.046875 C 416.53125 206.046875 415.851563 206.019531 415.203125 205.960938 C 414.558594 205.90625 413.878906 205.820313 413.160156 205.707031 C 412.441406 205.707031 411.761719 205.625 411.113281 205.453125 C 410.46875 205.285156 409.785156 205.144531 409.070313 205.03125 C 403.902344 203.679688 399.992188 201.367188 397.335938 198.101563 C 394.679688 194.832031 393.425781 191.28125 393.570313 187.449219 C 393.570313 186.886719 393.605469 186.320313 393.675781 185.757813 C 393.75 185.195313 393.855469 184.632813 394 184.066406 C 394 183.503906 394.109375 182.941406 394.324219 182.378906 C 394.539063 181.8125 394.71875 181.25 394.859375 180.6875 L 406.917969 151.269531 L 429.304688 151.269531 L 415.097656 185.925781 C 414.953125 186.265625 414.84375 186.605469 414.773438 186.941406 C 414.703125 187.28125 414.667969 187.5625 414.667969 187.789063 C 414.667969 188.238281 414.84375 188.605469 415.203125 188.886719 C 415.5625 189.167969 416.246094 189.308594 417.25 189.308594 C 417.679688 189.308594 418.109375 189.28125 418.539063 189.222656 C 418.972656 189.167969 419.402344 189.082031 419.832031 188.96875 C 422.273438 188.519531 424.570313 187.535156 426.722656 186.011719 C 428.875 184.492188 430.308594 182.882813 431.027344 181.191406 C 431.027344 181.082031 431.0625 180.996094 431.132813 180.941406 C 431.207031 180.882813 431.242188 180.800781 431.242188 180.6875 L 443.511719 151.269531 L 465.683594 151.269531 L 451.691406 185.925781 C 451.550781 186.265625 451.441406 186.605469 451.371094 186.941406 C 451.296875 187.28125 451.261719 187.5625 451.261719 187.789063 C 451.261719 188.238281 451.441406 188.605469 451.800781 188.886719 C 452.160156 189.167969 452.839844 189.308594 453.84375 189.308594 Z M 517.351563 151.4375 L 510.460938 168.175781 L 499.050781 168.175781 L 490.226563 189.308594 L 515.84375 189.308594 L 508.953125 206.046875 L 484.84375 206.046875 C 479.679688 206.046875 475.480469 204.695313 472.25 201.988281 C 469.023438 199.285156 467.40625 196.128906 467.40625 192.519531 C 467.40625 192.183594 467.445313 191.816406 467.515625 191.421875 C 467.585938 191.027344 467.621094 190.605469 467.621094 190.152344 C 467.765625 189.703125 467.910156 189.28125 468.054688 188.886719 C 468.195313 188.492188 468.339844 188.125 468.484375 187.789063 L 476.664063 168.175781 L 464.609375 168.175781 L 471.714844 151.4375 L 483.554688 151.4375 L 491.734375 131.65625 L 511.96875 136.898438 L 505.941406 151.4375 Z M 560.621094 189.308594 L 553.730469 206.046875 L 534.355469 206.046875 C 529.046875 206.046875 524.742188 204.664063 521.441406 201.90625 C 518.140625 199.144531 516.488281 195.902344 516.488281 192.183594 C 516.488281 191.730469 516.523438 191.308594 516.597656 190.914063 C 516.667969 190.519531 516.703125 190.097656 516.703125 189.648438 C 516.847656 189.308594 516.992188 188.941406 517.136719 188.546875 C 517.277344 188.152344 517.421875 187.730469 517.566406 187.28125 L 532.203125 151.269531 L 554.808594 151.269531 L 539.308594 189.308594 Z M 566 125.738281 C 566 128.894531 564.601563 131.628906 561.804688 133.9375 C 559.003906 136.25 555.523438 137.40625 551.363281 137.40625 C 547.34375 137.40625 543.902344 136.25 541.03125 133.9375 C 538.160156 131.628906 536.726563 128.894531 536.726563 125.738281 C 536.726563 122.582031 538.160156 119.878906 541.03125 117.625 C 543.902344 115.371094 547.34375 114.242188 551.363281 114.242188 C 555.523438 114.242188 559.003906 115.371094 561.804688 117.625 C 564.601563 119.878906 566 122.582031 566 125.738281 Z M 640.484375 159.722656 L 633.597656 176.460938 L 615.730469 176.460938 C 614.722656 177.8125 613.648438 179.164063 612.5 180.515625 C 611.351563 181.871094 610.132813 183.222656 608.839844 184.574219 C 604.535156 189.082031 599.90625 193.027344 594.957031 196.410156 C 590.003906 199.792969 584.660156 203.003906 578.917969 206.046875 L 573.105469 206.046875 C 572.246094 205.03125 571.382813 204.046875 570.523438 203.089844 C 569.660156 202.128906 568.871094 201.199219 568.15625 200.296875 C 565.429688 196.804688 563.273438 193.199219 561.695313 189.476563 C 560.117188 185.757813 559.328125 181.417969 559.328125 176.460938 C 559.328125 173.417969 559.617188 170.316406 560.1875 167.160156 C 560.761719 164.003906 561.625 160.847656 562.773438 157.691406 C 563.203125 156.566406 563.632813 155.46875 564.0625 154.394531 C 564.496094 153.324219 564.925781 152.28125 565.355469 151.269531 L 588.175781 151.269531 C 586.738281 153.75 585.449219 156.425781 584.300781 159.300781 C 583.152344 162.171875 582.289063 165.074219 581.714844 168.007813 C 581.285156 169.472656 581 170.910156 580.855469 172.316406 C 580.710938 173.726563 580.640625 175.164063 580.640625 176.628906 C 580.640625 177.753906 580.710938 178.910156 580.855469 180.09375 C 581 181.277344 581.214844 182.433594 581.5 183.558594 C 584.226563 181.644531 586.738281 179.617188 589.035156 177.472656 C 591.332031 175.332031 593.414063 173.078125 595.277344 170.710938 C 594.5625 169.695313 593.988281 168.625 593.554688 167.5 C 593.125 166.371094 592.910156 165.246094 592.910156 164.117188 C 592.910156 163.441406 592.980469 162.765625 593.125 162.089844 C 593.269531 161.414063 593.484375 160.734375 593.773438 160.058594 C 594.917969 157.242188 597.109375 154.847656 600.335938 152.875 C 603.566406 150.902344 607.046875 149.578125 610.777344 148.902344 C 611.496094 148.789063 612.25 148.703125 613.039063 148.648438 C 613.828125 148.589844 614.582031 148.5625 615.300781 148.5625 L 629.9375 148.5625 C 629.21875 150.367188 628.464844 152.199219 627.675781 154.058594 C 626.886719 155.917969 626.132813 157.804688 625.417969 159.722656 Z M 715.578125 188.988281 L 685.085938 206.207031 L 648.882813 206.046875 C 645.007813 206.03125 641.382813 205.398438 638.007813 204.101563 C 634.636719 202.808594 632.019531 200.804688 630.152344 198.101563 C 629.292969 196.859375 628.644531 195.507813 628.214844 194.042969 C 627.785156 192.578125 627.570313 191.113281 627.570313 189.648438 C 627.570313 189.308594 627.605469 188.941406 627.675781 188.546875 C 627.75 188.152344 627.785156 187.730469 627.785156 187.28125 C 628.070313 185.027344 628.679688 182.742188 629.613281 180.433594 C 630.546875 178.121094 631.515625 176.007813 632.519531 174.09375 C 635.535156 168.683594 639.230469 164.203125 643.605469 160.652344 C 647.984375 157.101563 652.539063 154.425781 657.277344 152.621094 C 659.285156 151.71875 661.257813 151.015625 663.195313 150.507813 C 665.132813 150 667.035156 149.632813 668.902344 149.410156 C 669.761719 149.296875 670.625 149.210938 671.484375 149.15625 C 672.34375 149.097656 673.277344 149.070313 674.28125 149.070313 C 680.167969 149.070313 685.40625 150.367188 689.996094 152.960938 C 694.589844 155.550781 696.886719 159.160156 696.886719 163.78125 C 696.886719 164.679688 696.777344 165.609375 696.5625 166.570313 C 696.347656 167.527344 695.953125 168.570313 695.378906 169.695313 C 694.230469 172.515625 691.863281 175.585938 688.277344 178.910156 C 684.6875 182.234375 679.664063 185.703125 673.207031 189.308594 Z M 674.714844 165.46875 C 669.546875 165.695313 665.027344 167.273438 661.152344 170.203125 C 657.277344 173.132813 654.40625 176.347656 652.539063 179.839844 C 652.539063 179.953125 652.503906 180.039063 652.433594 180.09375 C 652.359375 180.152344 652.324219 180.234375 652.324219 180.347656 C 658.925781 177.304688 663.984375 174.515625 667.5 171.980469 C 671.019531 169.441406 673.421875 167.273438 674.714844 165.46875 Z M 674.714844 165.46875 "/>
</g>
<g clip-path="url(#clip4)" clip-rule="nonzero">
<path style="fill:none;stroke-width:2.16;stroke-linecap:butt;stroke-linejoin:miter;stroke:rgb(100%,100%,100%);stroke-opacity:1;stroke-miterlimit:4;" d="M 1821.71875 913.140625 C 1826.054688 902.984375 1829.257813 893.101563 1831.40625 883.53125 C 1833.554688 873.960938 1834.648438 864.664063 1834.648438 855.640625 C 1834.648438 806.03125 1810.625 759.546875 1762.539063 716.148438 C 1714.453125 672.75 1661.71875 633.609375 1604.296875 598.648438 C 1574.179688 580.640625 1544.765625 563.726563 1516.054688 547.945313 C 1487.34375 532.164063 1462.226563 518.0625 1440.703125 505.679688 L 1309.375 639.234375 C 1313.710938 641.5 1331.289063 651.070313 1362.148438 667.984375 C 1392.96875 684.898438 1426.367188 704.625 1462.226563 727.164063 C 1469.414063 731.65625 1476.210938 735.875 1482.695313 739.820313 C 1489.140625 743.765625 1495.976563 747.984375 1503.125 752.515625 C 1534.726563 772.789063 1561.601563 791.96875 1583.867188 809.976563 C 1606.09375 828.023438 1617.226563 842.125 1617.226563 852.242188 C 1617.226563 854.507813 1616.875 856.5 1616.171875 858.179688 C 1615.429688 859.859375 1613.632813 861.265625 1610.78125 862.398438 C 1599.296875 868.023438 1586.71875 871.96875 1573.085938 874.234375 C 1559.453125 876.5 1544.765625 877.632813 1528.984375 877.632813 C 1517.5 877.632813 1506.015625 877.046875 1494.53125 875.914063 C 1483.046875 874.820313 1470.859375 873.101563 1457.929688 870.875 C 1436.40625 867.476563 1414.882813 862.984375 1393.359375 857.320313 C 1371.835938 851.695313 1352.460938 846.070313 1335.234375 840.445313 C 1328.046875 838.179688 1320.859375 835.640625 1313.710938 832.828125 C 1306.523438 830.015625 1300.078125 827.476563 1294.335938 825.210938 C 1285.703125 821.8125 1272.070313 815.328125 1253.4375 805.757813 C 1234.765625 796.1875 1215.390625 785.757813 1195.3125 774.46875 C 1180.9375 765.484375 1166.953125 756.1875 1153.320313 746.578125 C 1139.6875 737.007813 1127.851563 727.164063 1117.8125 717.007813 C 1109.179688 707.984375 1102.03125 698.960938 1096.289063 689.9375 C 1090.546875 680.953125 1087.65625 672.476563 1087.65625 664.585938 C 1087.65625 661.226563 1088.007813 658.101563 1088.75 655.289063 C 1089.453125 652.476563 1090.546875 649.9375 1091.953125 647.671875 L 1089.804688 651.070313 L 1249.101563 431.265625 C 1224.726563 416.617188 1199.960938 402.242188 1174.84375 388.179688 C 1149.726563 374.078125 1124.960938 359.703125 1100.585938 345.054688 C 1051.796875 316.890625 1003.007813 288.414063 954.179688 259.664063 C 905.390625 230.914063 856.601563 201.890625 807.8125 172.59375 L 1705.46875 172.59375 L 1636.601563 5.210938 C 1498.828125 5.210938 1360.703125 5.210938 1222.1875 5.210938 C 1083.710938 5.210938 944.882813 5.210938 805.664063 5.210938 C 729.609375 5.210938 670.742188 19.859375 629.140625 49.195313 C 587.5 78.492188 566.71875 112.867188 566.71875 152.320313 C 566.71875 160.210938 567.773438 168.101563 569.921875 175.992188 C 572.109375 183.882813 574.609375 191.773438 577.460938 199.664063 C 586.09375 218.804688 598.984375 237.710938 616.210938 256.304688 C 633.4375 274.898438 655.703125 292.085938 682.96875 307.867188 C 707.34375 321.382813 731.40625 335.171875 755.078125 349.273438 C 778.75 363.375 802.773438 377.75 827.1875 392.398438 C 851.5625 407.046875 875.625 421.421875 899.296875 435.523438 C 922.96875 449.585938 947.03125 463.414063 971.40625 476.929688 C 969.960938 480.289063 967.8125 483.414063 964.960938 486.226563 C 962.070313 489.039063 959.921875 491.578125 958.515625 493.84375 C 957.070313 496.070313 955.273438 498.335938 953.125 500.601563 C 950.976563 502.867188 949.179688 505.09375 947.734375 507.359375 C 929.0625 531.03125 912.226563 555.25 897.148438 580.054688 C 882.070313 604.859375 873.828125 631.890625 872.382813 661.226563 C 872.382813 743.492188 922.96875 818.179688 1024.140625 885.210938 C 1125.351563 952.28125 1236.914063 998.21875 1358.90625 1023.023438 C 1387.617188 1029.78125 1416.289063 1034.585938 1445 1037.398438 C 1473.710938 1040.210938 1501.71875 1041.617188 1528.984375 1041.617188 C 1566.289063 1041.617188 1601.796875 1038.53125 1635.507813 1032.320313 C 1669.257813 1026.109375 1699.765625 1016.265625 1727.03125 1002.710938 C 1749.960938 991.460938 1769.335938 978.492188 1785.15625 963.84375 C 1800.9375 949.195313 1813.125 932.28125 1821.71875 913.140625 Z M 2534.296875 551.304688 L 2170.46875 218.257813 C 2171.914063 214.859375 2173.359375 211.773438 2174.765625 208.960938 C 2176.210938 206.148438 2177.65625 203.023438 2179.101563 199.664063 C 2180.507813 196.265625 2181.953125 193.179688 2183.398438 190.367188 C 2184.84375 187.554688 2186.25 184.429688 2187.695313 181.070313 C 2190.585938 176.539063 2193.789063 173.726563 2197.382813 172.59375 C 2200.976563 171.460938 2205.625 170.914063 2211.367188 170.914063 L 2448.164063 170.914063 L 2379.296875 3.53125 C 2369.257813 3.53125 2356.679688 3.53125 2341.601563 3.53125 C 2326.5625 3.53125 2311.132813 3.53125 2295.351563 3.53125 C 2279.53125 3.53125 2264.101563 3.53125 2249.0625 3.53125 C 2233.984375 3.53125 2221.40625 3.53125 2211.367188 3.53125 C 2171.210938 3.53125 2134.257813 10.015625 2100.507813 22.984375 C 2066.796875 35.953125 2038.4375 54.820313 2015.46875 79.625 L 1933.671875 3.53125 L 1653.828125 3.53125 L 1927.226563 252.085938 L 1785.15625 551.304688 L 2011.171875 551.304688 C 2024.101563 525.40625 2036.640625 499.742188 2048.828125 474.390625 C 2061.054688 449.039063 2072.890625 423.375 2084.375 397.476563 L 2252.265625 551.304688 Z M 3210.234375 170.914063 L 3139.179688 3.53125 L 2669.921875 3.53125 C 2631.171875 3.53125 2594.921875 10.015625 2561.171875 22.984375 C 2527.460938 35.953125 2501.289063 55.953125 2482.617188 82.984375 C 2474.023438 95.40625 2467.539063 108.921875 2463.242188 123.570313 C 2458.945313 138.21875 2456.796875 152.867188 2456.796875 167.515625 C 2456.796875 170.914063 2457.148438 174.585938 2457.851563 178.53125 C 2458.59375 182.476563 2458.945313 186.695313 2458.945313 191.1875 C 2461.796875 213.726563 2467.890625 236.578125 2477.226563 259.664063 C 2486.5625 282.789063 2496.25 303.921875 2506.289063 323.0625 C 2536.445313 377.164063 2573.398438 421.96875 2617.148438 457.476563 C 2660.9375 492.984375 2706.484375 519.742188 2753.867188 537.789063 C 2773.945313 546.8125 2793.671875 553.84375 2813.046875 558.921875 C 2832.421875 564 2851.445313 567.671875 2870.117188 569.898438 C 2878.710938 571.03125 2887.34375 571.890625 2895.9375 572.4375 C 2904.53125 573.023438 2913.867188 573.296875 2923.90625 573.296875 C 2982.773438 573.296875 3035.15625 560.328125 3081.054688 534.390625 C 3126.992188 508.492188 3149.960938 472.398438 3149.960938 426.1875 C 3149.960938 417.203125 3148.867188 407.90625 3146.71875 398.296875 C 3144.570313 388.726563 3140.625 378.296875 3134.882813 367.046875 C 3123.398438 338.84375 3099.726563 308.140625 3063.867188 274.898438 C 3027.96875 241.65625 2977.734375 206.96875 2913.164063 170.914063 Z M 2928.242188 409.3125 C 2876.5625 407.046875 2831.367188 391.265625 2792.617188 361.96875 C 2753.867188 332.671875 2725.15625 300.523438 2706.484375 265.601563 C 2706.484375 264.46875 2706.132813 263.609375 2705.429688 263.0625 C 2704.726563 262.476563 2704.335938 261.65625 2704.335938 260.523438 C 2770.351563 290.953125 2820.9375 318.84375 2856.09375 344.195313 C 2891.289063 369.585938 2915.3125 391.265625 2928.242188 409.3125 Z M 3963.671875 170.914063 L 3892.65625 3.53125 L 3414.726563 3.53125 C 3374.570313 3.53125 3337.226563 10.5625 3302.8125 24.664063 C 3268.359375 38.765625 3241.796875 59.898438 3223.164063 88.0625 C 3214.53125 101.578125 3208.4375 115.40625 3204.84375 129.507813 C 3201.25 143.570313 3199.453125 157.945313 3199.453125 172.59375 C 3199.453125 200.796875 3204.84375 228.414063 3215.625 255.445313 C 3226.367188 282.515625 3238.945313 307.867188 3253.28125 331.539063 C 3253.28125 332.671875 3253.632813 333.492188 3254.375 334.078125 C 3255.078125 334.625 3255.429688 335.484375 3255.429688 336.617188 C 3294.179688 395.210938 3352.65625 448.765625 3430.898438 497.203125 C 3509.101563 545.679688 3591.992188 569.898438 3679.53125 569.898438 C 3682.382813 569.898438 3684.921875 569.898438 3687.070313 569.898438 C 3689.21875 569.898438 3691.71875 569.898438 3694.609375 569.898438 C 3696.015625 568.804688 3698.164063 568.21875 3701.054688 568.21875 C 3703.90625 568.21875 3706.796875 568.21875 3709.648438 568.21875 C 3764.179688 563.726563 3808.671875 547.945313 3843.125 520.875 C 3877.578125 493.84375 3894.804688 459.46875 3894.804688 417.75 C 3894.804688 416.617188 3894.804688 414.9375 3894.804688 412.671875 C 3894.804688 410.445313 3894.804688 408.726563 3894.804688 407.59375 C 3894.804688 405.367188 3894.453125 403.375 3893.710938 401.695313 C 3893.007813 400.015625 3892.65625 398.023438 3892.65625 395.757813 L 3881.875 321.382813 L 3666.601563 321.382813 L 3677.382813 402.554688 C 3635.742188 400.289063 3596.289063 387.320313 3558.984375 363.648438 C 3521.640625 339.976563 3491.523438 314.039063 3468.554688 285.875 C 3464.257813 280.25 3460.3125 275.171875 3456.71875 270.679688 C 3453.125 266.148438 3449.882813 261.65625 3447.03125 257.125 C 3447.03125 255.992188 3445.234375 252.359375 3441.640625 246.148438 C 3438.046875 239.9375 3434.101563 232.359375 3429.804688 223.335938 C 3428.359375 222.203125 3427.304688 220.796875 3426.5625 219.078125 C 3425.859375 217.398438 3424.804688 215.992188 3423.359375 214.859375 C 3420.46875 206.96875 3417.617188 199.390625 3414.726563 192.046875 C 3411.875 184.703125 3410.429688 179.351563 3410.429688 175.992188 C 3410.429688 174.859375 3410.78125 173.726563 3411.523438 172.59375 C 3412.226563 171.460938 3413.320313 170.914063 3414.726563 170.914063 Z M 4674.0625 170.914063 L 4603.046875 3.53125 C 4593.007813 3.53125 4582.578125 3.53125 4571.835938 3.53125 C 4561.054688 3.53125 4549.921875 3.53125 4538.4375 3.53125 C 4506.875 3.53125 4476.367188 8.0625 4446.953125 17.046875 C 4417.539063 26.070313 4391.367188 38.492188 4368.398438 54.273438 C 4339.6875 38.492188 4308.476563 26.070313 4274.765625 17.046875 C 4241.015625 8.0625 4206.953125 3.53125 4172.5 3.53125 C 4165.3125 3.53125 4158.515625 3.804688 4152.03125 4.390625 C 4145.585938 4.9375 4138.789063 5.796875 4131.601563 6.929688 C 4124.414063 6.929688 4117.617188 7.75 4111.132813 9.46875 C 4104.6875 11.148438 4097.851563 12.554688 4090.703125 13.6875 C 4039.023438 27.203125 3999.921875 50.328125 3973.359375 82.984375 C 3946.796875 115.679688 3934.257813 151.1875 3935.703125 189.507813 C 3935.703125 195.132813 3936.054688 200.796875 3936.757813 206.421875 C 3937.5 212.046875 3938.554688 217.671875 3940 223.335938 C 3940 228.960938 3941.09375 234.585938 3943.242188 240.210938 C 3945.390625 245.875 3947.1875 251.5 3948.59375 257.125 L 4069.179688 551.304688 L 4293.046875 551.304688 L 4150.976563 204.742188 C 4149.53125 201.34375 4148.4375 197.945313 4147.734375 194.585938 C 4147.03125 191.1875 4146.679688 188.375 4146.679688 186.109375 C 4146.679688 181.617188 4148.4375 177.945313 4152.03125 175.132813 C 4155.625 172.320313 4162.460938 170.914063 4172.5 170.914063 C 4176.796875 170.914063 4181.09375 171.1875 4185.390625 171.773438 C 4189.726563 172.320313 4194.023438 173.179688 4198.320313 174.3125 C 4222.734375 178.804688 4245.703125 188.648438 4267.226563 203.882813 C 4288.75 219.078125 4303.085938 235.171875 4310.273438 252.085938 C 4310.273438 253.179688 4310.625 254.039063 4311.328125 254.585938 C 4312.070313 255.171875 4312.421875 255.992188 4312.421875 257.125 L 4435.117188 551.304688 L 4656.835938 551.304688 L 4516.914063 204.742188 C 4515.507813 201.34375 4514.414063 197.945313 4513.710938 194.585938 C 4512.96875 191.1875 4512.617188 188.375 4512.617188 186.109375 C 4512.617188 181.617188 4514.414063 177.945313 4518.007813 175.132813 C 4521.601563 172.320313 4528.398438 170.914063 4538.4375 170.914063 Z M 5173.515625 549.625 L 5104.609375 382.242188 L 4990.507813 382.242188 L 4902.265625 170.914063 L 5158.4375 170.914063 L 5089.53125 3.53125 L 4848.4375 3.53125 C 4796.796875 3.53125 4754.804688 17.046875 4722.5 44.117188 C 4690.234375 71.148438 4674.0625 102.710938 4674.0625 138.804688 C 4674.0625 142.164063 4674.453125 145.835938 4675.15625 149.78125 C 4675.859375 153.726563 4676.210938 157.945313 4676.210938 162.476563 C 4677.65625 166.96875 4679.101563 171.1875 4680.546875 175.132813 C 4681.953125 179.078125 4683.398438 182.75 4684.84375 186.109375 L 4766.640625 382.242188 L 4646.09375 382.242188 L 4717.148438 549.625 L 4835.546875 549.625 L 4917.34375 747.4375 L 5119.6875 695.015625 L 5059.414063 549.625 Z M 5606.210938 170.914063 L 5537.304688 3.53125 L 5343.554688 3.53125 C 5290.46875 3.53125 5247.421875 17.359375 5214.414063 44.9375 C 5181.40625 72.554688 5164.882813 104.976563 5164.882813 142.164063 C 5164.882813 146.695313 5165.234375 150.914063 5165.976563 154.859375 C 5166.679688 158.804688 5167.03125 163.023438 5167.03125 167.515625 C 5168.476563 170.914063 5169.921875 174.585938 5171.367188 178.53125 C 5172.773438 182.476563 5174.21875 186.695313 5175.664063 191.1875 L 5322.03125 551.304688 L 5548.085938 551.304688 L 5393.085938 170.914063 Z M 5660 806.617188 C 5660 775.054688 5646.015625 747.710938 5618.046875 724.625 C 5590.039063 701.5 5555.234375 689.9375 5513.632813 689.9375 C 5473.4375 689.9375 5439.023438 701.5 5410.3125 724.625 C 5381.601563 747.710938 5367.265625 775.054688 5367.265625 806.617188 C 5367.265625 838.179688 5381.601563 865.210938 5410.3125 887.75 C 5439.023438 910.289063 5473.4375 921.578125 5513.632813 921.578125 C 5555.234375 921.578125 5590.039063 910.289063 5618.046875 887.75 C 5646.015625 865.210938 5660 838.179688 5660 806.617188 Z M 6404.84375 466.773438 L 6335.976563 299.390625 L 6157.304688 299.390625 C 6147.226563 285.875 6136.484375 272.359375 6125 258.84375 C 6113.515625 245.289063 6101.328125 231.773438 6088.398438 218.257813 C 6045.351563 173.179688 5999.0625 133.726563 5949.570313 99.898438 C 5900.039063 66.070313 5846.601563 33.960938 5789.179688 3.53125 L 5731.054688 3.53125 C 5722.460938 13.6875 5713.828125 23.53125 5705.234375 33.101563 C 5696.601563 42.710938 5688.710938 52.007813 5681.5625 61.03125 C 5654.296875 95.953125 5632.734375 132.007813 5616.953125 169.234375 C 5601.171875 206.421875 5593.28125 249.820313 5593.28125 299.390625 C 5593.28125 329.820313 5596.171875 360.835938 5601.875 392.398438 C 5607.617188 423.960938 5616.25 455.523438 5627.734375 487.085938 C 5632.03125 498.335938 5636.328125 509.3125 5640.625 520.054688 C 5644.960938 530.757813 5649.257813 541.1875 5653.554688 551.304688 L 5881.757813 551.304688 C 5867.382813 526.5 5854.492188 499.742188 5843.007813 470.992188 C 5831.523438 442.28125 5822.890625 413.257813 5817.148438 383.921875 C 5812.851563 369.273438 5810 354.898438 5808.554688 340.835938 C 5807.109375 326.734375 5806.40625 312.359375 5806.40625 297.710938 C 5806.40625 286.460938 5807.109375 274.898438 5808.554688 263.0625 C 5810 251.226563 5812.148438 239.664063 5815 228.414063 C 5842.265625 247.554688 5867.382813 267.828125 5890.351563 289.273438 C 5913.320313 310.679688 5934.140625 333.21875 5952.773438 356.890625 C 5945.625 367.046875 5939.882813 377.75 5935.546875 389 C 5931.25 400.289063 5929.101563 411.539063 5929.101563 422.828125 C 5929.101563 429.585938 5929.804688 436.34375 5931.25 443.101563 C 5932.695313 449.859375 5934.84375 456.65625 5937.734375 463.414063 C 5949.179688 491.578125 5971.09375 515.523438 6003.359375 535.25 C 6035.664063 554.976563 6070.46875 568.21875 6107.773438 574.976563 C 6114.960938 576.109375 6122.5 576.96875 6130.390625 577.515625 C 6138.28125 578.101563 6145.820313 578.375 6153.007813 578.375 L 6299.375 578.375 C 6292.1875 560.328125 6284.648438 542.007813 6276.757813 523.414063 C 6268.867188 504.820313 6261.328125 485.953125 6254.179688 466.773438 Z M 7155.78125 174.117188 L 6850.859375 1.929688 L 6488.828125 3.53125 C 6450.078125 3.6875 6413.828125 10.015625 6380.078125 22.984375 C 6346.367188 35.914063 6320.195313 55.953125 6301.523438 82.984375 C 6292.929688 95.40625 6286.445313 108.921875 6282.148438 123.570313 C 6277.851563 138.21875 6275.703125 152.867188 6275.703125 167.515625 C 6275.703125 170.914063 6276.054688 174.585938 6276.757813 178.53125 C 6277.5 182.476563 6277.851563 186.695313 6277.851563 191.1875 C 6280.703125 213.726563 6286.796875 236.578125 6296.132813 259.664063 C 6305.46875 282.789063 6315.15625 303.921875 6325.195313 323.0625 C 6355.351563 377.164063 6392.304688 421.96875 6436.054688 457.476563 C 6479.84375 492.984375 6525.390625 519.742188 6572.773438 537.789063 C 6592.851563 546.8125 6612.578125 553.84375 6631.953125 558.921875 C 6651.328125 564 6670.351563 567.671875 6689.023438 569.898438 C 6697.617188 571.03125 6706.25 571.890625 6714.84375 572.4375 C 6723.4375 573.023438 6732.773438 573.296875 6742.8125 573.296875 C 6801.679688 573.296875 6854.0625 560.328125 6899.960938 534.390625 C 6945.898438 508.492188 6968.867188 472.398438 6968.867188 426.1875 C 6968.867188 417.203125 6967.773438 407.90625 6965.625 398.296875 C 6963.476563 388.726563 6959.53125 378.296875 6953.789063 367.046875 C 6942.304688 338.84375 6918.632813 308.140625 6882.773438 274.898438 C 6846.875 241.65625 6796.640625 206.96875 6732.070313 170.914063 Z M 6747.148438 409.3125 C 6695.46875 407.046875 6650.273438 391.265625 6611.523438 361.96875 C 6572.773438 332.671875 6544.0625 300.523438 6525.390625 265.601563 C 6525.390625 264.46875 6525.039063 263.609375 6524.335938 263.0625 C 6523.59375 262.476563 6523.242188 261.65625 6523.242188 260.523438 C 6589.257813 290.953125 6639.84375 318.84375 6675 344.195313 C 6710.195313 369.585938 6734.21875 391.265625 6747.148438 409.3125 Z M 6747.148438 409.3125 " transform="matrix(0.1,0,0,-0.1,0,206.4)"/>
</g>
</g>
</svg>
